<?xml version="1.0" encoding="utf-8"?>
<!-- Generator: Adobe Illustrator 17.1.0, SVG Export Plug-In . SVG Version: 6.00 Build 0)  -->
<!DOCTYPE svg PUBLIC "-//W3C//DTD SVG 1.1//EN" "http://www.w3.org/Graphics/SVG/1.1/DTD/svg11.dtd">
<svg version="1.1" id="Layer_2" xmlns="http://www.w3.org/2000/svg" xmlns:xlink="http://www.w3.org/1999/xlink" x="0px" y="0px"
	 viewBox="0 0 525.3 211.5" enable-background="new 0 0 525.3 211.5" xml:space="preserve">
<g>
	<path fill="#FFFFFF" d="M396,118.3c-7,0-12.7-3.1-16.9-9.2c-3.9-5.7-6.7-12.6-8.3-20.5c-1.8-8.8-2.8-16.7-3.2-23.5
		c-0.5-9.9-0.8-19.9-0.8-29.6l0.1-20.7c-0.7-1.2-1-2.6-1-4.1c0-2.1,0.8-4.1,2.3-5.7c1.6-1.7,3.6-2.6,5.8-2.6c3.4,0,9,1.8,9.1,13.9
		l1.3,47.9c0.6,1.7,1,4.2,1.4,7.8c0.4,3.9,0.6,6.9,0.6,9.1c0,1.8,0.3,4.1,0.9,6.8c0.6,2.8,1.5,5.7,2.6,8.6c1,2.6,2.3,4.8,3.9,6.6
		c1.8,1.9,2.6,2,2.7,2c0.9,0,1.2-0.2,1.2-0.2c0.2-0.2,0.4-0.8,0.6-1.5c0.4-2.2,0.7-4.5,0.7-6.9V69.4c0-2.8-0.3-7.1-0.9-12.8
		c-0.6-6-0.9-10.5-0.9-13.6v-0.9l-0.3-8.1l-1-24V9.9c0-2.5,1.3-4.7,3.6-6.2c1.8-1.1,3.7-1.7,5.7-1.7h1.6l5.8,5.6V12l-1,8.5
		c0,7.7,0.4,19.4,1.3,34.8c0.9,15.9,1.3,26.4,1.3,32c0,5.7-0.1,9.4-0.3,11.4c-0.2,2.1-0.6,4.3-1.2,6.6c-0.7,2.5-1.6,4.7-2.8,6.5
		c-2.1,3-6.1,6.5-13.5,6.5L396,118.3z"/>
	<path fill="#996B29" d="M370.8,35.5l0.1-21.9c-0.7-0.8-1-1.7-1-2.9c0-1.1,0.4-2.1,1.2-3c0.8-0.9,1.7-1.3,2.8-1.3
		c3.4,0,5.1,3.3,5.1,10l1.3,48.7c0.5,1.2,1,3.7,1.4,7.5c0.4,3.7,0.6,6.6,0.6,8.7c0,2.1,0.3,4.6,1,7.7c0.7,3,1.6,6.1,2.7,9.2
		c1.2,3.1,2.7,5.7,4.7,7.9s3.9,3.3,5.6,3.3s3.1-0.4,4-1.3c0.9-0.8,1.5-2,1.8-3.6c0.5-2.5,0.8-5,0.8-7.7V69.4c0-3-0.3-7.4-0.9-13.2
		c-0.6-5.8-0.9-10.2-0.9-13.2v-1l-0.3-8.1l-1-24c0-1.1,0.6-2.1,1.7-2.8c1.1-0.7,2.3-1.1,3.6-1.1l3.4,3.3v2.3l-1,8.5
		c0,7.8,0.4,19.5,1.3,35.2c0.8,15.7,1.3,26.3,1.3,31.8s-0.1,9.2-0.2,11.1c-0.2,1.8-0.5,3.8-1.1,5.9c-0.5,2.1-1.3,3.8-2.3,5.2
		c-2.2,3.2-5.7,4.8-10.3,4.8c-5.7,0-10.3-2.4-13.7-7.5c-3.6-5.3-6.2-11.6-7.7-19c-1.7-8.7-2.8-16.3-3.1-22.9
		C371.1,55,370.8,45.2,370.8,35.5z"/>
	<path fill="#FFFFFF" d="M428.2,116.6c-1.8,0-7.5,0-9.9-4c-0.8-1.3-1.1-2.8-1.1-4.6V26.6c0-0.9-0.2-2.7-0.9-6.3c-0.7-3.4-1-6-1-8
		v-1.6l0.6-1c2.3-3.8,3.4-5.1,4.2-5.8l1-0.9l11.9-1.4h0.2c2.1,0,4.2,0.6,6.3,1.8c2.7,1.6,4.1,4,4.1,6.8c0,1.9-0.7,8.2-10.4,8.2
		l-1.3,0l0.9,19v0.1c0,2-0.1,4.7-0.3,8.4c-0.1,0.9-0.1,1.8-0.2,2.5c0.9-0.1,1.7-0.2,2.3-0.2c2.1,0,4,0.8,5.6,2.2
		c1.7,1.5,2.6,3.5,2.6,5.7c0,2-0.7,3.9-1.9,5.4c-1.4,1.8-3.5,2.8-5.8,2.8l-2.4-0.1v36c3.3-0.2,3.6-0.2,3.8-0.2c10.4,0,12,4.8,12,7.7
		v1.4l-0.4,0.8c-1.1,2.1-2.8,3.7-5.2,4.8c-2,0.9-3.8,1.4-5.4,1.5c-1.3,0.1-2.9,0.1-4.9,0.1H428.2z"/>
	<path fill="#996B29" d="M435.1,60.5l-3.5-0.1c-1.4,0-2.3,0.3-2.9,1v43.2c4.8-0.3,7.4-0.4,7.8-0.4c5.3,0,8,1.2,8,3.7v0.5
		c-0.6,1.3-1.7,2.3-3.3,2.9c-1.5,0.7-2.9,1.1-4.1,1.2c-1.2,0.1-2.7,0.1-4.6,0.1h-4.4c-3.5,0-5.6-0.7-6.4-2.1
		c-0.4-0.6-0.5-1.5-0.5-2.5V26.6c0-1.6-0.3-4-1-7.1c-0.6-3.1-1-5.5-1-7.2v-0.5c1.5-2.6,2.7-4.2,3.5-4.9l10.4-1.2
		c1.4,0,2.8,0.4,4.3,1.3c1.4,0.8,2.2,1.9,2.2,3.3c0,2.8-2.1,4.2-6.4,4.2l-4-0.1c-0.7,0-1.2,0-1.5,0.1l1.1,23.1
		c0,1.9-0.1,4.6-0.3,8.2c-0.2,3.6-0.3,6.2-0.3,7.8c0.5-0.1,1.2-0.3,2.1-0.5c1.9-0.5,3.4-0.8,4.5-0.8c1.1,0,2,0.4,2.9,1.2
		c0.8,0.8,1.3,1.7,1.3,2.8s-0.3,2.1-1,2.9C437.1,60,436.2,60.5,435.1,60.5z"/>
	<path fill="#FFFFFF" d="M459.8,118.8c-4.1,0-7.3-0.6-9.8-2c-3.4-1.7-5.1-4-5.1-6.8c0-4.7,2.8-7.8,7.1-7.8c1.6,0,3.4,0.4,5.7,1.4
		c1.4,0.6,2.3,0.7,2.8,0.8c0.2-0.1,0.6-0.3,1.3-1.1c1.1-1.2,2-2.7,2.6-4.6c1.5-4.4,2.3-8.4,2.3-11.8c0-3.5-0.6-7.3-1.9-11.4
		c-1.3-4.2-2.9-8.3-4.7-12c-2-3.9-3.9-7.8-5.9-11.7c-5-9.9-7.5-19.1-7.5-27.4c-0.1-8.4,2.7-15.2,8.2-20.1c3.2-2.9,7-4.3,11.3-4.3
		c2.4,0,4.7,0.7,6.9,1.9c2.3,1.4,4,3.2,5,5.5l0.9,2.2l-5.1,6.4h-1.9c-2.3,0-4.3-0.4-6-1.1c-0.3,0.2-0.6,0.4-1,0.8
		c-1.7,1.9-2.5,4.3-2.5,7.3c0,3.6,0.5,7.1,1.4,10.5c0.9,3.5,2.1,6.6,3.5,9.3c1.5,3,3.1,6.2,4.9,9.7c1.8,3.4,3.4,6.8,5,10.1
		c3.7,7.9,5.6,16.5,5.6,25.6c0,6.7-1.7,13.2-5.1,19.3c-1.8,3.2-4.2,5.8-7.3,7.9C467.3,117.7,463.7,118.8,459.8,118.8z"/>
	<path fill="#996B29" d="M448.9,110.1c0-2.5,1-3.8,3.1-3.8c1,0,2.4,0.4,4.1,1.1c1.7,0.7,3.2,1.1,4.4,1.1c1.3,0,2.6-0.8,4.1-2.4
		c1.5-1.6,2.6-3.6,3.4-5.9c1.7-4.8,2.5-9.2,2.5-13.1s-0.7-8.1-2.1-12.5c-1.4-4.5-3-8.7-5-12.6c-2-3.9-3.9-7.8-5.9-11.8
		c-4.7-9.3-7.1-17.9-7-25.6c0-7.3,2.3-13,6.9-17.2c2.5-2.2,5.4-3.3,8.7-3.3c1.7,0,3.3,0.5,4.9,1.4c1.6,0.9,2.7,2.2,3.3,3.7l-2.4,3
		c-2.3,0-4.1-0.5-5.5-1.4c-1.7,0.2-3.2,1-4.5,2.5c-2.3,2.7-3.5,6-3.5,9.9c0,3.9,0.5,7.8,1.5,11.5c1,3.7,2.3,7.1,3.8,10
		c1.5,3,3.1,6.2,4.9,9.6c1.8,3.5,3.4,6.8,4.9,10c3.5,7.4,5.3,15.4,5.3,23.9c0,6-1.5,11.8-4.6,17.4c-1.5,2.6-3.5,4.8-6,6.5
		c-2.6,1.7-5.4,2.6-8.5,2.6c-3.4,0-6-0.5-8-1.5C449.9,112.3,448.9,111.2,448.9,110.1z"/>
	<path fill="#FFFFFF" d="M502.1,116.7c-3,0-5.6-1.6-7-4.4c-1-2-1.5-4.2-1.5-6.6l0-0.2l1.1-22.3c0-4.7-0.3-11.9-0.9-21.4
		c-0.6-9.7-1-17.2-1-22.1l0.2-12.3c0-4.2-0.2-6.9-0.4-8.7l-4.3,0.4h-0.2c-2.1,0-4-0.6-5.6-1.9c-1.9-1.5-3-3.6-3-5.9
		c0-2.1,1-4.9,6-6.6c2.5-0.9,5.6-1.6,9.1-2c5.7-0.7,10.6-1,14.6-1c2,0,4,0.7,5.6,2c1.9,1.5,2.9,3.6,2.9,6c0,2.3-1,4.4-2.7,5.8
		c-1.5,1.2-3.4,1.9-5.5,1.9l-0.2,0l-1.8-0.1c0.3,4.2,0.5,8.6,0.5,13.1l-0.3,18l1.2,32.1l1.2,25.2v0.1
		C510.1,115.6,504.5,116.7,502.1,116.7z"/>
	<path fill="#996B29" d="M504,30.5l-0.3,18l1.2,32.2l1.2,25.2c0,4.6-1.3,6.8-4,6.8c-1.5,0-2.7-0.7-3.4-2.2c-0.7-1.5-1.1-3.1-1.1-4.9
		l1.1-22.4c0-4.8-0.3-12.1-1-21.8c-0.6-9.7-1-17-1-21.8l0.2-12.2c0-6.7-0.4-11.1-1.3-13.1l-7.6,0.8c-1.2,0-2.2-0.4-3.2-1.1
		c-0.9-0.7-1.4-1.6-1.4-2.7c0-1.1,1.1-2.1,3.3-2.8c2.3-0.8,5-1.4,8.2-1.8c5.6-0.6,10.3-1,14.2-1c1.1,0,2.2,0.4,3.1,1.1
		c0.9,0.8,1.4,1.7,1.4,2.8c0,1.1-0.4,2-1.2,2.7c-0.8,0.7-1.8,1-3,1l-5-0.3c-0.6,0-1.1,0-1.4,0.1C503.7,18.6,504,24.3,504,30.5z"/>
	
		<linearGradient id="SVGID_1_" gradientUnits="userSpaceOnUse" x1="425.5368" y1="98.9027" x2="425.5368" y2="202.0773" gradientTransform="matrix(0.9962 -8.715574e-002 8.715574e-002 0.9962 -11.6173 37.6583)">
		<stop  offset="0" style="stop-color:#ECE18F"/>
		<stop  offset="1" style="stop-color:#DAC648"/>
	</linearGradient>
	<path fill="url(#SVGID_1_)" d="M421,117.2c-3.5,0.3-6.7-2.3-7-5.9l-0.5-6c-0.3-3.5-3.5-6.2-7-5.9l-75,6.6c-3.5,0.3-6.2,3.5-5.9,7
		l0.5,6c0.3,3.5,0.8,9.4,1.1,12.9l0.7,8.1c0.3,3.5,0.8,9.4,1.1,12.9l4.6,52.7c0.3,3.5,3.5,6.2,7,5.9l178.6-15.6
		c3.5-0.3,6.2-3.5,5.9-7l-6.4-73.7c-0.3-3.5-3.5-6.2-7-5.9L421,117.2z"/>
	<path fill="#FFFFFF" d="M26.1,118c-3.8,0-7.1-0.8-9.9-2.4c-2.7-1.5-4.9-3.5-6.7-6c-1.7-2.3-3.2-5.2-4.4-8.7
		c-1.1-3.3-2.1-6.5-2.7-9.7l0-0.1c-0.6-3.2-1-6.9-1.4-11C0.3,73.2,0,65.7,0,57.6l0.1-16.8c0-5.2,0.3-9.5,0.9-12.9
		c-0.2-1.5-0.3-2.9-0.3-4.3c0-7,2.7-12.7,7.9-16.8c5-4,11.2-6,18.3-6c2.9,0,5.8,0.8,8.6,2.4c3.4,2,5.2,4.9,5.2,8.4
		c0,2.3-1,4.3-2.9,5.6c-1.5,1.1-3.5,1.6-6.2,1.6c-2.5,0-4.2-0.7-5.4-1.6h-3.7c-3,0.7-3.8,2.1-4.2,2.7c-1,1.7-2.2,5.5-2.2,13.9
		l0.4,9.9l-1.2,9.9v3.1c0,10.6,0.2,17.7,0.7,21c0.5,3.5,1,6.6,1.4,9.3c0.4,2.5,1,4.6,1.7,6.3c0.7,1.7,1.5,3.4,2.5,4.9
		c1.5,2.3,3.2,3.3,5.7,3.3c0.1,0,1.2,0,3.6-1.8c3.2-2.2,5.5-3.2,7.7-3.2c2.3,0,4.6,1.1,6.8,3.3l1.2,1.2v1.7
		c0,4.5-1.8,10.5-10.6,13.8C33,117.4,29.6,118,26.1,118z"/>
	<path fill="#996B29" d="M12.5,43.4l-1.2,9.8v3.3c0,10.8,0.2,18,0.7,21.5c0.5,3.5,1,6.7,1.5,9.4c0.5,2.8,1.2,5.2,1.9,7.1
		c0.8,2,1.7,3.8,2.8,5.5c2.2,3.5,5.2,5.2,9.1,5.2c1.6,0,3.6-0.8,5.9-2.5c2.4-1.7,4.2-2.5,5.4-2.5s2.6,0.7,4,2.1c0,4.7-2.7,8-8,10
		c-2.6,1-5.5,1.4-8.6,1.4c-3.1,0-5.7-0.6-7.9-1.9s-4-2.9-5.5-4.9c-1.5-2-2.7-4.5-3.8-7.6c-1.1-3.1-2-6.2-2.6-9.2
		c-0.5-3.1-1-6.7-1.4-10.7C4.3,73,4,65.6,4,57.6l0.1-16.7c0-5.3,0.3-9.6,1-12.9c-0.3-1.5-0.4-3-0.4-4.4c0-5.7,2.1-10.3,6.4-13.7
		c4.3-3.4,9.6-5.1,15.9-5.1c2.2,0,4.4,0.6,6.6,1.9c2.1,1.3,3.2,2.9,3.2,5c0,1-0.4,1.8-1.2,2.3c-0.8,0.5-2.1,0.8-3.9,0.8
		s-3.1-0.6-3.8-1.7v0.1h-1.9v-0.3c-5.4,0-9.1,1.7-11.1,5.1c-1.8,3.1-2.7,8.4-2.7,16L12.5,43.4z"/>
	<path fill="#FFFFFF" d="M76.6,117.2c-3.2,0-6-1.9-8.4-5.6l-0.7-1V109c-0.4-6.6-2.3-16.1-5.9-28.5v27.6c0,2.2-0.5,4-1.4,5.5
		c-0.7,1.1-2.5,3-6.1,3c-3.1,0-5-1.4-6-2.5c-1.3-1.5-2-3.3-2-5.4v-1.1l0.5-82.1V8.3c0-2.2,0.6-3.9,1.9-5.2c1.6-1.6,4.2-1.9,6.4-1.9
		c2.5,0,5.1,0.6,7.6,1.8c2.5,1.2,4.6,2.7,6.3,4.7L69,7.9c1.5,1.9,2.8,4,3.9,6.3c2.1,4.4,3.1,9.2,3.1,14.4c0,5-1.2,10.8-3.7,17.1
		l-0.1,0.1c-0.3,0.6-0.8,1.9-1.6,3.9c-0.5,1.3-0.9,2.3-1.1,2.9c0.2,6.4,1.9,14.8,5.1,25.1c1.2,3.7,2.9,8.8,5,15.3
		c2.2,6.5,3.6,10.7,4.1,12.4l0.2,0.6v1c0,3.5-0.3,7-2.8,8.7C79.8,116.7,78.3,117.2,76.6,117.2z"/>
	<path fill="#996B29" d="M50.2,107.6l0.5-82.1V8.3c0-1.1,0.2-1.9,0.7-2.3c0.5-0.5,1.7-0.7,3.6-0.7c1.9,0,3.9,0.5,5.9,1.4
		c2,0.9,3.7,2.2,5,3.7c1.3,1.6,2.5,3.5,3.4,5.5c1.8,3.9,2.7,8.1,2.7,12.6c0,4.6-1.1,9.8-3.4,15.7c-0.3,0.6-0.8,2-1.6,4
		s-1.3,3.3-1.4,3.6c0,6.9,1.8,15.9,5.3,27c1.2,3.7,2.9,8.9,5.1,15.3s3.6,10.6,4.1,12.3v0.3c0,3.1-0.4,5-1.1,5.5
		c-0.7,0.5-1.5,0.8-2.3,0.8c-1.7,0-3.4-1.3-5.1-3.8v-0.5c-0.5-8.5-3.4-21.3-8.8-38.5c-2.5-7.8-4.2-13.6-5.1-17.4v55.2
		c0,1.4-0.3,2.5-0.8,3.3c-0.5,0.8-1.4,1.2-2.7,1.2c-1.3,0-2.3-0.4-3-1.1c-0.7-0.8-1-1.7-1-2.8V107.6z M57.9,11.7l-0.8,28.6
		c0,2.9,0,5,0.1,6.4c1.6-1.5,3.2-3.3,4.7-5.4l2.2-12.1c0.1-0.6,0.2-1.4,0.2-2.2c0-2.2-0.5-4.9-1.4-8.1
		C61.8,14.5,60.1,12.1,57.9,11.7z"/>
	<path fill="#FFFFFF" d="M95.5,116.6c-1.8,0-7.5,0-9.9-4c-0.8-1.3-1.1-2.8-1.1-4.6V26.6c0-0.9-0.2-2.7-0.9-6.3c-0.7-3.4-1-6-1-8
		v-1.6l0.6-1C85.5,6,86.6,4.7,87.3,4l1-0.9l11.9-1.4h0.2c2.1,0,4.2,0.6,6.3,1.8c2.7,1.6,4.1,4,4.1,6.8c0,1.9-0.7,8.2-10.4,8.2
		l-1.3,0l0.9,19v0.1c0,2-0.1,4.7-0.4,8.4c-0.1,0.9-0.1,1.8-0.2,2.5c0.9-0.1,1.7-0.2,2.3-0.2c2.1,0,4,0.8,5.6,2.2
		c1.7,1.5,2.6,3.5,2.6,5.7c0,2-0.7,3.9-1.9,5.4c-1.4,1.8-3.5,2.8-5.8,2.8l-2.4-0.1v36c3.3-0.2,3.6-0.2,3.8-0.2c10.4,0,12,4.8,12,7.7
		v1.4l-0.4,0.8c-1.1,2.1-2.8,3.7-5.2,4.8c-2,0.9-3.8,1.4-5.4,1.5c-1.3,0.1-2.9,0.1-4.9,0.1H95.5z"/>
	<path fill="#996B29" d="M102.4,60.5l-3.5-0.1c-1.4,0-2.3,0.3-2.9,1v43.2c4.8-0.3,7.4-0.4,7.8-0.4c5.3,0,8,1.2,8,3.7v0.5
		c-0.6,1.3-1.7,2.3-3.3,2.9c-1.5,0.7-2.9,1.1-4.1,1.2c-1.2,0.1-2.7,0.1-4.6,0.1h-4.4c-3.5,0-5.6-0.7-6.4-2.1
		c-0.4-0.6-0.5-1.5-0.5-2.5V26.6c0-1.6-0.3-4-1-7.1c-0.6-3.1-1-5.5-1-7.2v-0.5c1.5-2.6,2.7-4.2,3.5-4.9l10.4-1.2
		c1.4,0,2.8,0.4,4.3,1.3c1.4,0.8,2.2,1.9,2.2,3.3c0,2.8-2.1,4.2-6.4,4.2l-4-0.1c-0.7,0-1.2,0-1.5,0.1l1.1,23.1
		c0,1.9-0.1,4.6-0.3,8.2c-0.2,3.6-0.3,6.2-0.3,7.8c0.5-0.1,1.2-0.3,2.1-0.5c1.9-0.5,3.4-0.8,4.5-0.8c1.1,0,2,0.4,2.9,1.2
		c0.8,0.8,1.3,1.7,1.3,2.8s-0.3,2.1-1,2.9C104.4,60,103.5,60.5,102.4,60.5z"/>
	<path fill="#FFFFFF" d="M149.6,115.7c-5,0-8.3-3-8.3-7.6V92.3c-0.9-0.3-2.1-0.6-3.9-0.9c-2.1-0.4-4.1-0.7-6-0.9
		c-0.3,0.9-0.6,2.1-0.9,3.6c-0.6,3.1-1.3,6.2-1.9,9.4c-0.8,3.6-1.8,6.5-3.1,8.7l-1.2,1.9h-2.3c-7.1,0-9.4-3.2-10-5.9l-0.4-1.8l1-1.4
		c0.4-0.8,1.9-4.9,5.6-26.4c2.9-16.8,5.2-30.1,7.1-39.6c1.9-9.6,3.9-17.9,6.1-24.5c2-6.2,4.8-12.4,9.9-12.4c2.9,0,5.2,0.7,7,2.1
		l1.5,1.2v1.9c0,2.2,0.5,8.5,2.7,26.5c1.9,15,2.8,24.5,2.8,29c0,4.2,0.5,11.3,1.5,21.1c1,10.1,1.5,17.8,1.5,22.9
		C158.3,112.3,154.9,115.7,149.6,115.7z M134.1,76.9c2.1,0.4,3.9,0.7,5.5,0.7c0.5,0,0.9,0,1.2,0c-0.2-2.6-0.6-6.4-1.1-11.2
		c-0.5-5.2-1-10.2-1.4-15.1c0,0.2-0.1,0.4-0.1,0.6C136.1,63.6,134.7,72,134.1,76.9z"/>
	<path fill="#996B29" d="M149.6,111.7c-2.9,0-4.3-1.2-4.3-3.6V89.8c-1.3-0.9-3.7-1.7-7.1-2.3c-3.4-0.6-6.5-1-9.2-1.2
		c-1,1.6-1.7,4-2.4,7.1c-0.6,3.1-1.3,6.2-1.9,9.4c-0.7,3.1-1.5,5.6-2.6,7.5c-3.6,0-5.7-0.9-6.2-2.8c1.3-1.8,3.3-11.1,6.2-28
		s5.2-30,7.1-39.5s3.8-17.5,6-24c2.1-6.5,4.2-9.7,6.2-9.7c2,0,3.5,0.4,4.5,1.2c0,3.3,0.9,12.3,2.7,27c1.8,14.7,2.7,24.2,2.7,28.5
		s0.5,11.5,1.5,21.5c1,10,1.5,17.5,1.5,22.5C154.3,110.1,152.7,111.7,149.6,111.7z M143.7,66c-0.8-8.3-1.6-16.2-2.2-23.7
		c-0.7-7.5-1-12-1-13.6s0-2.5,0.1-2.7c-1.5,1.5-3.6,9.9-6.3,25.1C131.5,66.3,130,76,129.8,80c3.9,1,7.1,1.6,9.7,1.6
		c2.6,0,4.5-0.1,5.6-0.4C145,79.3,144.5,74.2,143.7,66z"/>
	<path fill="#FFFFFF" d="M175,116.7c-3,0-5.6-1.6-7-4.4c-1-2-1.5-4.2-1.5-6.6l0-0.2l1.1-22.3c0-4.7-0.3-11.9-0.9-21.4
		c-0.6-9.7-1-17.2-1-22.1l0.2-12.3c0-4.2-0.2-6.9-0.4-8.7l-4.3,0.4H161c-2.1,0-4-0.6-5.6-1.9c-1.9-1.5-3-3.6-3-5.9
		c0-2.1,1-4.9,6-6.6c2.5-0.9,5.6-1.6,9.1-2c5.7-0.7,10.6-1,14.6-1c2,0,4,0.7,5.6,2c1.9,1.5,2.9,3.6,2.9,6c0,2.3-1,4.4-2.7,5.8
		c-1.5,1.2-3.4,1.9-5.5,1.9l-0.2,0l-1.8-0.1c0.3,4.2,0.5,8.6,0.5,13.1l-0.3,18l1.2,32.1l1.2,25.2v0.1
		C183.1,115.6,177.5,116.7,175,116.7z"/>
	<path fill="#996B29" d="M176.9,30.5l-0.3,18l1.2,32.2l1.2,25.2c0,4.6-1.3,6.8-4,6.8c-1.5,0-2.7-0.7-3.4-2.2
		c-0.7-1.5-1.1-3.1-1.1-4.9l1.1-22.4c0-4.8-0.3-12.1-1-21.8c-0.6-9.7-1-17-1-21.8l0.2-12.2c0-6.7-0.4-11.1-1.3-13.1l-7.6,0.8
		c-1.2,0-2.2-0.4-3.2-1.1c-0.9-0.7-1.4-1.6-1.4-2.7c0-1.1,1.1-2.1,3.3-2.8c2.3-0.8,5-1.4,8.2-1.8c5.6-0.6,10.3-1,14.2-1
		c1.1,0,2.2,0.4,3.1,1.1c0.9,0.8,1.4,1.7,1.4,2.8c0,1.1-0.4,2-1.2,2.7c-0.8,0.7-1.8,1-3,1l-5-0.3c-0.6,0-1.1,0-1.4,0.1
		C176.6,18.6,176.9,24.3,176.9,30.5z"/>
	<path fill="#FFFFFF" d="M217.4,118.3c-7,0-12.7-3.1-16.9-9.2c-3.9-5.7-6.7-12.6-8.3-20.5c-1.8-8.8-2.8-16.7-3.2-23.5
		c-0.5-9.9-0.8-19.9-0.8-29.6l0.1-20.7c-0.7-1.2-1-2.6-1-4.1c0-2.1,0.8-4.1,2.3-5.7c1.6-1.7,3.6-2.6,5.8-2.6c3.4,0,9,1.8,9.1,13.9
		l1.3,47.9c0.6,1.7,1,4.2,1.4,7.8c0.4,3.9,0.6,6.9,0.6,9.1c0,1.8,0.3,4.1,0.9,6.8c0.6,2.8,1.5,5.7,2.6,8.6c1,2.6,2.3,4.8,3.9,6.6
		c1.8,1.9,2.6,2,2.7,2c0.9,0,1.2-0.2,1.2-0.2c0.2-0.2,0.4-0.8,0.6-1.5c0.4-2.2,0.7-4.5,0.7-6.9V69.4c0-2.8-0.3-7.1-0.9-12.8
		c-0.6-6-0.9-10.5-0.9-13.6v-0.9l-0.3-8.1l-1-24V9.9c0-2.5,1.3-4.7,3.6-6.2c1.8-1.1,3.7-1.7,5.7-1.7h1.6l5.8,5.6V12l-1,8.5
		c0,7.7,0.4,19.4,1.3,34.8c0.9,15.9,1.3,26.4,1.3,32c0,5.7-0.1,9.4-0.3,11.4c-0.2,2.1-0.6,4.3-1.2,6.6c-0.7,2.5-1.6,4.7-2.8,6.5
		c-2.1,3-6.1,6.5-13.5,6.5L217.4,118.3z"/>
	<path fill="#996B29" d="M192.2,35.5l0.1-21.9c-0.7-0.8-1-1.7-1-2.9c0-1.1,0.4-2.1,1.2-3c0.8-0.9,1.7-1.3,2.8-1.3
		c3.4,0,5.1,3.3,5.1,10l1.3,48.7c0.5,1.2,1,3.7,1.4,7.5c0.4,3.7,0.6,6.6,0.6,8.7c0,2.1,0.3,4.6,1,7.7c0.7,3,1.6,6.1,2.7,9.2
		c1.2,3.1,2.7,5.7,4.7,7.9s3.9,3.3,5.6,3.3s3.1-0.4,4-1.3c0.9-0.8,1.5-2,1.8-3.6c0.5-2.5,0.8-5,0.8-7.7V69.4c0-3-0.3-7.4-0.9-13.2
		c-0.6-5.8-0.9-10.2-0.9-13.2v-1l-0.3-8.1l-1-24c0-1.1,0.6-2.1,1.7-2.8c1.1-0.7,2.3-1.1,3.6-1.1l3.4,3.3v2.3l-1,8.5
		c0,7.8,0.4,19.5,1.3,35.2c0.8,15.7,1.3,26.3,1.3,31.8s-0.1,9.2-0.2,11.1c-0.2,1.8-0.5,3.8-1.1,5.9c-0.5,2.1-1.3,3.8-2.3,5.2
		c-2.2,3.2-5.7,4.8-10.3,4.8c-5.7,0-10.3-2.4-13.7-7.5c-3.6-5.3-6.2-11.6-7.7-19c-1.7-8.7-2.8-16.3-3.1-22.9
		C192.5,55,192.2,45.2,192.2,35.5z"/>
	<path fill="#FFFFFF" d="M268.1,117.2c-3.2,0-6-1.9-8.4-5.6l-0.7-1V109c-0.4-6.6-2.3-16.1-5.9-28.5v27.6c0,2.2-0.5,4-1.4,5.5
		c-0.7,1.1-2.5,3-6.1,3c-3.1,0-5-1.4-6-2.5c-1.3-1.5-2-3.3-2-5.4v-1.1l0.5-82.1V8.3c0-2.2,0.6-3.9,1.9-5.2c1.6-1.6,4.2-1.9,6.4-1.9
		c2.5,0,5.1,0.6,7.6,1.8c2.5,1.2,4.6,2.7,6.3,4.7l0.1,0.1c1.5,1.9,2.8,4,3.9,6.3c2.1,4.4,3.1,9.2,3.1,14.4c0,5-1.2,10.8-3.7,17.1
		l-0.1,0.1c-0.3,0.6-0.8,1.9-1.6,3.9c-0.5,1.3-0.9,2.3-1.1,2.9c0.2,6.4,1.9,14.8,5.1,25.1c1.2,3.7,2.9,8.8,5,15.3
		c2.2,6.6,3.6,10.6,4.1,12.4l0.2,0.6v1c0,3.5-0.3,7-2.8,8.7C271.4,116.6,269.8,117.2,268.1,117.2z"/>
	<path fill="#996B29" d="M241.8,107.6l0.5-82.1V8.3c0-1.1,0.2-1.9,0.7-2.3c0.5-0.5,1.7-0.7,3.6-0.7c1.9,0,3.9,0.5,5.9,1.4
		c2,0.9,3.7,2.2,5,3.7c1.3,1.6,2.5,3.5,3.4,5.5c1.8,3.9,2.7,8.1,2.7,12.6c0,4.6-1.1,9.8-3.4,15.7c-0.3,0.6-0.8,2-1.6,4
		s-1.3,3.3-1.4,3.6c0,6.9,1.8,15.9,5.3,27c1.2,3.7,2.9,8.9,5.1,15.3c2.2,6.5,3.6,10.6,4.1,12.3v0.3c0,3.1-0.4,5-1.1,5.5
		c-0.7,0.5-1.5,0.8-2.3,0.8c-1.7,0-3.4-1.3-5.1-3.8v-0.5c-0.5-8.5-3.4-21.3-8.8-38.5c-2.5-7.8-4.2-13.6-5.1-17.4v55.2
		c0,1.4-0.3,2.5-0.8,3.3c-0.5,0.8-1.4,1.2-2.7,1.2c-1.3,0-2.3-0.4-3-1.1c-0.7-0.8-1-1.7-1-2.8V107.6z M249.5,11.7l-0.8,28.6
		c0,2.9,0,5,0.1,6.4c1.6-1.5,3.2-3.3,4.7-5.4l2.2-12.1c0.1-0.6,0.2-1.4,0.2-2.2c0-2.2-0.5-4.9-1.4-8.1
		C253.3,14.5,251.6,12.1,249.5,11.7z"/>
	<path fill="#FFFFFF" d="M287,116.6c-1.8,0-7.5,0-9.9-4c-0.8-1.3-1.1-2.8-1.1-4.6V26.6c0-0.9-0.2-2.7-0.9-6.3c-0.7-3.4-1-6-1-8v-1.6
		l0.6-1c2.3-3.8,3.4-5.1,4.2-5.8l1-0.9l11.9-1.4h0.2c2.1,0,4.2,0.6,6.3,1.8c2.7,1.6,4.1,4,4.1,6.8c0,1.9-0.7,8.2-10.4,8.2l-1.3,0
		l0.9,19v0.1c0,2-0.1,4.7-0.3,8.4c-0.1,0.9-0.1,1.8-0.2,2.5c0.9-0.1,1.7-0.2,2.3-0.2c2.1,0,4,0.8,5.6,2.2c1.7,1.5,2.6,3.5,2.6,5.7
		c0,2-0.7,3.9-1.9,5.4c-1.4,1.8-3.5,2.8-5.8,2.8l-2.4-0.1v36c3.3-0.2,3.6-0.2,3.8-0.2c10.4,0,12,4.8,12,7.7v1.4l-0.4,0.8
		c-1.1,2.1-2.8,3.7-5.2,4.8c-2,0.9-3.8,1.4-5.4,1.5c-1.3,0.1-2.9,0.1-4.9,0.1H287z"/>
	<path fill="#996B29" d="M293.9,60.5l-3.5-0.1c-1.4,0-2.3,0.3-2.9,1v43.2c4.8-0.3,7.4-0.4,7.8-0.4c5.3,0,8,1.2,8,3.7v0.5
		c-0.6,1.3-1.7,2.3-3.3,2.9c-1.5,0.7-2.9,1.1-4.1,1.2c-1.2,0.1-2.7,0.1-4.6,0.1H287c-3.5,0-5.6-0.7-6.4-2.1
		c-0.4-0.6-0.5-1.5-0.5-2.5V26.6c0-1.6-0.3-4-1-7.1c-0.6-3.1-1-5.5-1-7.2v-0.5c1.5-2.6,2.7-4.2,3.5-4.9L292,5.7
		c1.4,0,2.8,0.4,4.3,1.3c1.4,0.8,2.2,1.9,2.2,3.3c0,2.8-2.1,4.2-6.4,4.2l-4-0.1c-0.7,0-1.2,0-1.5,0.1l1.1,23.1
		c0,1.9-0.1,4.6-0.3,8.2c-0.2,3.6-0.3,6.2-0.3,7.8c0.5-0.1,1.2-0.3,2.1-0.5c1.9-0.5,3.4-0.8,4.5-0.8c1.1,0,2,0.4,2.9,1.2
		c0.8,0.8,1.3,1.7,1.3,2.8s-0.3,2.1-1,2.9C295.9,60,295,60.5,293.9,60.5z"/>
	<path fill="#FFFFFF" d="M359.3,135c-2.3,0-4.9-0.8-7.8-2.5l-2-1.2v-0.1c-2.4-1.7-4.1-4.1-5.1-7.2c-0.9-2.6-1.5-5.3-1.9-8.1
		c-0.1-0.6-0.2-1.1-0.2-1.6h-3.6l-1-0.7c-9.9-6.6-15.5-17.4-16.5-32.2c-0.2-2.6-0.3-5.7-0.3-9l0.7-22.9l-0.1-9.8
		C321.4,13.4,328,0,340.9,0c6.4,0,11.6,2.4,15.4,7.1c3.3,4.3,5.6,9.5,7,15.8c1.3,6.6,2,12.3,2.1,17c0.1,4.5,0.2,8.3,0.3,11.4
		c0,1.6,0.1,3.2,0.1,4.7l0,0.1c0,1.4-0.1,2.8-0.1,4.2l0,0.1c-0.1,2.8-0.1,4.9-0.1,6.1l0,6.4c0,8.1-0.5,14.8-1.6,19.8
		c-1,4.9-3.3,9.9-6.8,15.1c0.1,0.3,0.1,0.8,0.2,1.2c0.2,1.4,0.5,2.8,0.8,4.2c0.2,1.2,0.6,2.5,1,3.8c0.3,1.1,0.6,1.8,0.8,2.2
		c3,0,6.2,0.5,7.9,2.8c1.1,1.4,1.6,3,1.6,4.6C369.5,128.7,368.7,135,359.3,135z M340.7,15.1c-0.3,0.6-0.8,1.8-1.4,4.1
		c-1.1,4.5-1.9,10.4-2.4,17.3c-0.8,12-1.2,20.6-1.2,25.7c0,5.1,0.1,8.8,0.2,10.7c0.1,2,0.3,4.6,0.5,7.7c0.3,3,0.7,5.7,1.2,8.2
		c0.6,2.5,1.3,5,2.1,7.4c0.7,2,1.6,3.5,2.7,4.6c0.4,0.4,0.8,0.7,1.1,0.9c0.8-0.6,1.9-1,3.3-1.3c2-2.5,3-6.2,3-11.1V54.9
		c0-1.9,0.1-3.7,0.1-5.5C350,28.3,346.7,16.2,340.7,15.1z"/>
	<path fill="#996B29" d="M325.4,39.8c0-23.9,5.1-35.8,15.4-35.8c5.2,0,9.3,1.9,12.3,5.6c2.9,3.7,5,8.4,6.2,14.1
		c1.3,6.3,2,11.8,2.1,16.3c0.1,4.5,0.2,8.3,0.3,11.4c0,1.5,0.1,3.1,0.1,4.6c0,1.5-0.1,2.9-0.1,4.4c-0.1,2.9-0.1,5-0.1,6.4V73
		c0,7.9-0.5,14.2-1.5,19c-1,4.8-3.4,9.8-7.1,15c0.1,0.4,0.3,1.3,0.5,2.8c0.3,1.5,0.5,2.9,0.8,4.3s0.6,2.8,1.1,4.2c1,3.3,2.1,5,3.6,5
		h0.5c2.9,0,4.6,0.4,5.2,1.1s0.8,1.5,0.8,2.3c0,2.9-2.1,4.3-6.2,4.3c-1.6,0-3.5-0.7-5.8-2V129c-2.6-1.2-4.3-3.3-5.3-6.2
		c-0.8-2.3-1.3-4.8-1.7-7.3c-0.3-2.6-0.6-4.2-0.8-5.1h-5.7c-8.9-5.9-13.8-15.6-14.8-29.1c-0.2-2.6-0.3-5.5-0.3-8.8l0.7-22.8
		L325.4,39.8z M353.9,54.9c0-1.9,0.1-3.7,0.1-5.5c0-25.7-4.8-38.5-14.3-38.5c-1.7,0-3.1,2.4-4.3,7.2c-1.2,4.8-2,10.8-2.5,18
		c-0.8,12.1-1.2,20.7-1.2,25.9c0,5.2,0.1,8.9,0.2,10.9c0.1,2.1,0.3,4.7,0.5,7.8c0.3,3.2,0.7,6.1,1.3,8.8c0.6,2.7,1.4,5.3,2.3,7.8
		s2.1,4.6,3.6,6.1c1.5,1.5,3.2,2.4,5.2,2.6v-0.1c0.7-1.2,2-1.8,3.8-1.8v0.1c3.5-3.2,5.3-8.2,5.3-15V54.9z"/>
	<g>
		<path fill="#6F6D6D" d="M380.5,167l0.6,7.2c0.5,5.9,1.4,10.4,2.7,13.7l-0.7,1.9l-2.2,0.2l-1.1-0.9c-0.1-2-0.3-4.2-0.5-6.7
			c-0.2-2.5-0.9-7.8-2.1-15.8c-1.2-8.1-1.9-14.1-2.3-18.1c-0.2-2.1,0.6-3.2,2.3-3.4c2.7-0.2,5,0.2,7,1.2c2,1,3,2.7,3.2,4.9l0.4,4.7
			c0.1,1.3-0.1,2.5-0.5,3.6c-0.5,1.1-1,2.3-1.6,3.5c-0.6,1.2-1,1.9-1,2c0.4,1.1,1.1,3.1,2,6.2c2.1,6.8,4.2,11.6,6.4,14.5
			c0.6,0.8,0.9,1.5,1,2s-0.1,0.9-0.4,1.3c-0.3,0.4-0.7,0.6-1.2,0.6c-1.1,0.1-2.2-0.9-3.4-2.9c-1.2-2-2.2-4.3-3-6.9
			c-2.5-7.8-4.1-12-4.5-12.8L380.5,167z M379.1,147.4l-0.2,1c0.2,1.8,0.4,4.4,0.8,7.9c0.4,3.4,0.7,5.9,0.8,7.5
			c1.2-0.6,2-2.1,2.6-4.5c0.5-2.3,0.8-4.1,0.7-5.3c-0.1-1.2-0.2-2.1-0.3-2.7c-0.1-0.6-0.3-1.2-0.7-1.9
			C382.2,147.9,380.9,147.3,379.1,147.4z"/>
		<path fill="#6F6D6D" d="M395.6,154.3l-0.9-5.6c-0.3-3.1,0.7-4.8,2.9-5c1.4-0.1,3.3,0,5.8,0.3c2.5,0.3,3.7,0.9,3.8,1.8
			c0.1,0.9-0.6,1.7-2.1,2.3c-2.5-0.5-4.5-0.7-6-0.8c0.2,0.9,0.3,1.9,0.4,2.8l0.5,9.6c0,0,0.1,0.4,0.3,1l2.8-0.3
			c2.5-0.2,3.8,0.3,3.9,1.5c0,0.5-0.1,0.9-0.6,1.3c-0.4,0.4-1,0.6-1.7,0.7c-0.7,0.1-1.5,0.1-2.3,0.1l-2,0.2c0.3,1.7,0.5,3.3,0.7,5
			l0.7,12.1c0.2,2.5,0.4,3.7,0.5,3.7l5.7-0.7c2-0.2,3,0.3,3.1,1.4c0.1,0.7-0.2,1.2-0.9,1.6c-0.7,0.4-1.4,0.6-2.3,0.7l-6.6,0.6
			c-0.7,0.1-1.3-0.1-1.9-0.4c-0.6-0.4-0.9-0.8-1-1.4l-0.2-1.8l-1.5-11.2L395.6,154.3z"/>
		<path fill="#6F6D6D" d="M413.2,157.6l-0.4-6.3c-0.2-2.7-0.6-4.7-1.1-6.1c0.2-1.6,0.8-2.4,1.9-2.5l3.4-0.3c3-0.3,5.2,0.6,6.6,2.6
			c1.2,1.8,1.9,3.9,2.2,6.4c0.3,3.1,0.3,5,0.2,5.7c-0.1,0.7-0.2,1.4-0.4,2c-0.1,0.6-0.3,1.2-0.6,1.6c-0.3,0.4-0.6,0.9-1,1.4
			c-0.4,0.5-0.9,0.9-1.5,1.3c-1.2,0.8-2.7,1.6-4.5,2.2l0.6,7.1l1.7,12.5c0,0.5-0.2,1-0.7,1.4c-0.5,0.4-1.1,0.7-1.8,0.7l-1.7-0.7
			c-0.8-2.4-1.4-5.6-1.8-9.7l-0.7-11.9c-0.4-0.6-0.6-1.1-0.6-1.6l0-0.2C413.4,162.5,413.5,160.5,413.2,157.6z M416.5,149.8l1.3,12.9
			l0,0.1c3.1-0.6,4.3-4.5,3.7-11.6c-0.2-2.1-0.6-3.5-1.3-4.2c-0.7-0.7-1.8-1.1-3.1-0.9c0-0.1-0.3-0.1-0.8,0L416.5,149.8z"/>
		<path fill="#6F6D6D" d="M431.1,164.5l-0.1-2.5c0-0.2-0.1-0.3-0.1-0.3l-0.1-1.2c-0.6-7-0.6-12,0.1-15c0.6-2.6,1.2-4.2,1.9-4.8
			c0.7-0.6,1.4-1,2.1-1.1c6-0.5,10.4,1.7,13.1,6.7c1.6,2.9,2.6,6.5,2.9,10.9l0,0.5l0.8,7.5c1.1,12.7-1.8,19.4-8.7,20
			c-2.9,0.3-5.2-0.9-6.9-3.5c-1.7-2.5-2.8-4.9-3.3-7.4C431.9,170.5,431.3,167.3,431.1,164.5z M434.9,155l0.2,6.2
			c0.6,6.4,1.7,12,3.3,16.7c1.5,2.7,2.9,4.2,4.1,4.6c0.9-0.1,1.8-0.5,2.5-1.2c0.7-0.7,1.2-1.6,1.6-2.8c0.3-1.1,0.6-2.3,0.8-3.6
			c0.2-1.2,0.3-2.5,0.3-3.9c0-2.4,0-4.4-0.1-6.1s-0.5-4.2-1.2-7.6c-0.6-3.4-1-6-1.2-7.6l-0.1-1.2c-0.2-1.6-0.9-3-2.2-4.2
			c-1.3-1.2-2.9-1.7-4.7-1.5c-1.8,0.2-2.9,1.1-3.3,2.9c-0.4,1.5-0.4,3.3-0.3,5.4L434.9,155z"/>
		<path fill="#6F6D6D" d="M460,160l0.6,7.2c0.5,5.9,1.4,10.4,2.7,13.7l-0.7,1.9l-2.2,0.2l-1.1-0.9c-0.1-2-0.3-4.2-0.5-6.7
			s-0.9-7.8-2.1-15.8c-1.2-8.1-1.9-14.1-2.3-18.1c-0.2-2.1,0.6-3.2,2.3-3.4c2.7-0.2,5,0.2,7,1.2c2,1.1,3,2.7,3.2,4.9l0.4,4.7
			c0.1,1.3-0.1,2.5-0.5,3.6c-0.5,1.1-1,2.3-1.6,3.5c-0.6,1.2-1,1.9-1,2c0.4,1.1,1.1,3.1,2,6.2c2.1,6.8,4.2,11.6,6.4,14.5
			c0.6,0.8,0.9,1.5,1,2c0,0.5-0.1,0.9-0.4,1.3s-0.7,0.6-1.2,0.6c-1.1,0.1-2.2-0.9-3.4-2.9c-1.2-2-2.2-4.3-3-6.9
			c-2.5-7.8-4.1-12-4.5-12.8L460,160z M458.6,140.4l-0.2,1c0.2,1.8,0.4,4.4,0.8,7.9c0.4,3.4,0.7,5.9,0.8,7.5c1.2-0.6,2-2.1,2.6-4.5
			c0.5-2.3,0.8-4.1,0.7-5.3c-0.1-1.2-0.2-2.1-0.3-2.7c-0.1-0.6-0.3-1.2-0.7-1.9C461.6,141,460.4,140.3,458.6,140.4z"/>
		<path fill="#6F6D6D" d="M481.5,179.5l-0.6-5.1c0,0,0-0.8-0.1-2.3c-0.3-0.5-1.1-5.5-2.5-14.9c-1.4-9.4-2.3-15.1-2.5-17.2
			c-0.1,0-0.2,0-0.3,0c-4.2,0.3-6.4-0.2-6.5-1.4c0-0.4,0.2-0.8,0.7-1.1c0.5-0.3,1.1-0.5,1.6-0.5l10.6-0.3l1.3-0.1
			c1.6-0.1,2.5,0.3,2.6,1.4c0,0.5-0.2,1-0.7,1.4c-0.5,0.4-1.1,0.6-1.7,0.7l-3.6-0.1l-0.1,0.7c0.4,4.2,1.3,10.4,2.9,18.7
			c1.6,8.3,2.6,14.6,2.9,18.8c0,0.5-0.2,1-0.7,1.5c-0.5,0.5-1.1,0.7-1.8,0.8L481.5,179.5z"/>
	</g>
</g>
</svg>
